<svg xmlns="http://www.w3.org/2000/svg" version="1.1" xmlns:xlink="http://www.w3.org/1999/xlink" xmlns:svgjs="http://svgjs.dev/svgjs" width="1000" height="623" viewBox="0 0 1000 623"><g transform="matrix(1,0,0,1,-0.6060606060605664,0.2522267206477409)"><svg viewBox="0 0 396 247" data-background-color="#ffffff" preserveAspectRatio="xMidYMid meet" height="623" width="1000" xmlns="http://www.w3.org/2000/svg" xmlns:xlink="http://www.w3.org/1999/xlink"><g id="tight-bounds" transform="matrix(1,0,0,1,0.2400000000000091,-0.09999999999999432)"><svg viewBox="0 0 395.52 247.2" height="247.2" width="395.52"><g><svg></svg></g><g><svg viewBox="0 0 395.52 247.2" height="247.2" width="395.52"><g transform="matrix(1,0,0,1,75.54432,78.92705170791652)"><svg viewBox="0 0 244.43135999999998 89.34589658416697" height="89.34589658416697" width="244.43135999999998"><g><svg viewBox="0 0 409.1737243854212 149.56343271132755" height="89.34589658416697" width="244.43135999999998"><g transform="matrix(1,0,0,1,164.74236438542124,45.79998186037146)"><svg viewBox="0 0 244.43135999999998 57.96346899058463" height="57.96346899058463" width="244.43135999999998"><g id="textblocktransform"><svg viewBox="0 0 244.43135999999998 57.96346899058463" height="57.96346899058463" width="244.43135999999998" id="textblock"><g><svg viewBox="0 0 244.43135999999998 57.96346899058463" height="57.96346899058463" width="244.43135999999998"><g transform="matrix(1,0,0,1,0,0)"><svg width="244.43135999999998" viewBox="2 -38.43000030517578 222.97999572753906 52.880001068115234" height="57.96346899058463" data-palette-color="#ecab55"><path d="M2.34-35.01L2.34-35.01 5.27-34.72Q6.01-27.25 6.69-3.96L6.69-3.96Q9.96-4.15 14.99-4.15 20.02-4.15 23.05-4.3L23.05-4.3Q23.34-3.47 23.46-1.95 23.58-0.44 23.73 0.29L23.73 0.29Q17.33-0.1 7.42-0.1L7.42-0.1 2-0.1Q2.25-7.32 2.27-19.43 2.29-31.54 2.34-35.01ZM40.23-24.51L40.23-24.51 42.58-24.07 42.58-23.58Q42.58-20.26 42.99-12.35 43.41-4.44 43.75-0.15L43.75-0.15Q42.77 0.24 41.89 0.24L41.89 0.24Q41.11 0.24 40.13 0L40.13 0 39.74-1.27Q36.62 0.49 33.79 0.49L33.79 0.49Q31.69 0.49 30.15-0.49 28.61-1.46 27.78-2.91 26.95-4.35 26.46-6.47 25.97-8.59 25.85-10.33 25.73-12.06 25.73-14.21L25.73-14.21Q25.73-20.46 26.51-25.68L26.51-25.68 28.71-25.2Q29.05-23.58 29.05-21.68L29.05-21.68Q29.05-20.61 28.93-17.97 28.81-15.33 28.81-13.96L28.81-13.96Q28.81-11.57 29.03-9.84 29.25-8.11 29.86-6.47 30.47-4.83 31.74-3.96 33.01-3.08 34.91-3.08L34.91-3.08Q37.06-3.08 39.55-4.05L39.55-4.05Q39.65-5.86 39.74-13.31 39.84-20.75 40.23-24.51ZM64.16-24.22L64.16-24.22 63.91-22.12Q61.86-22.41 60.4-22.41L60.4-22.41Q57.03-22.41 54.83-20.39 52.63-18.36 51.83-15.6 51.02-12.84 51.02-9.47L51.02-9.47Q51.02-7.91 51.22-6.69 51.41-5.47 51.92-4.3 52.44-3.13 53.54-2.47 54.63-1.81 56.25-1.81L56.25-1.81Q58.39-1.81 61.71-2.64L61.71-2.64Q62.74-3.03 63.33-3.03L63.33-3.03Q64.5-3.03 64.74-0.29L64.74-0.29Q60.44 1.07 56.78 1.07L56.78 1.07Q51.46 1.07 49.58-1.54 47.7-4.15 47.7-10.01L47.7-10.01Q47.7-13.43 48.16-15.99 48.63-18.55 49.8-20.78 50.97-23 53.19-24.17 55.41-25.34 58.64-25.34L58.64-25.34Q62.25-25.34 64.16-24.22ZM85.05 0L85.05 0 80.56-0.1Q78.75-1.9 75.6-5.93 72.45-9.96 71.62-10.89L71.62-10.89 71.62-0.83Q71.18 0.63 69.91 0.63L69.91 0.63Q69.04 0.63 68.23-0.07 67.42-0.78 67.23-1.81L67.23-1.81Q67.38-6.84 67.38-18.51 67.38-30.18 67.57-35.25L67.57-35.25 70.55-34.62Q70.6-32.67 70.72-26.61 70.84-20.56 70.94-17.58L70.94-17.58 82.81-26.27 83.64-24.07Q79-20.7 72.75-14.55L72.75-14.55Q74.06-13.13 78.58-7.64 83.1-2.15 85.05 0ZM90.52 14.45L90.52 14.45 87.49 12.74Q89.49 9.28 94.57-0.44L94.57-0.44Q90.62-3.96 88.52-11.08 86.42-18.21 85.98-25.34L85.98-25.34 88.81-25.2Q89.05-24.02 89.86-19.85 90.66-15.67 91.15-13.67 91.64-11.67 92.89-8.67 94.13-5.66 95.74-3.61L95.74-3.61Q102.53-16.65 102.53-25L102.53-25 102.53-25.54Q105.07-25.15 106.34-24.61L106.34-24.61Q105.56-19.48 103.9-14.16 102.24-8.84 99.75-3.44 97.26 1.95 95.33 5.62 93.4 9.28 90.52 14.45ZM123.08-35.06L123.08-35.06 125.28-35.64Q125.28-34.08 125.33-33.89L125.33-33.89Q128.11-35.74 133.14-35.74L133.14-35.74Q138.56-35.74 141.24-32.35 143.93-28.96 143.93-22.85L143.93-22.85Q143.93-17.43 141.29-13.87 138.66-10.3 133.33-10.3L133.33-10.3Q132.46-10.3 126.3-10.89L126.3-10.89Q126.4-7.32 126.69 0.2L126.69 0.2Q126.25 1.71 124.99 1.71L124.99 1.71Q124.11 1.71 123.3 1 122.49 0.29 122.3-0.73L122.3-0.73Q122.45-4.83 122.62-16.7 122.79-28.56 123.08-35.06ZM125.77-30.62L125.77-30.62 126.16-15.38Q128.84-13.92 132.36-13.92L132.36-13.92Q135.73-13.92 138.07-16.46 140.41-18.99 140.41-22.66L140.41-22.66Q140.41-26.61 137.97-29.79 135.53-32.96 131.87-32.96L131.87-32.96Q128.89-32.96 125.77-30.62ZM147.74-21.09L147.74-21.09 146.76-23.58Q148.03-24.85 149.98-25.61 151.94-26.37 153.84-26.37L153.84-26.37Q162.09-26.37 162.09-12.11L162.09-12.11Q162.09-10.16 161.87-6.35 161.65-2.54 161.65-0.63L161.65-0.63Q161.26 0.88 160.14 0.88L160.14 0.88Q159.26 0.88 158.53 0 157.8-0.88 157.8-1.95L157.8-1.95Q157.8-2.29 157.84-2.44L157.84-2.44Q154.82 0.49 151.4 0.49L151.4 0.49Q148.81 0.49 146.88-1.39 144.95-3.27 144.95-5.96L144.95-5.96Q144.95-10.5 148.49-14.16 152.03-17.82 156.53-17.82L156.53-17.82Q156.72-17.82 156.92-17.8 157.11-17.77 157.38-17.72 157.65-17.68 157.8-17.68L157.8-17.68Q157.4-23.39 153.25-23.39L153.25-23.39Q150.81-23.39 147.74-21.09ZM157.94-5.81L157.94-5.81Q158.04-9.23 158.04-10.99L158.04-10.99Q158.04-12.45 157.94-15.09L157.94-15.09 157.55-15.09Q154.08-15.04 151.23-12.5 148.37-9.96 148.37-6.35L148.37-6.35Q148.37-4.79 149.32-3.86 150.28-2.93 151.64-2.93L151.64-2.93Q153.79-2.93 157.94-5.81ZM169.36-19.53L169.36-19.53 169.56-0.2Q168.83 0.2 167.8 0.2L167.8 0.2Q167.02 0.2 166.04-0.05L166.04-0.05Q166.19-3.13 166.24-12.16 166.29-21.19 166.63-25.54L166.63-25.54 168.83-25.05 168.97-22.31Q171.56-25.05 174.93-25.05L174.93-25.05Q176.64-25.05 177.67-24.8 178.69-24.56 179.64-23.61 180.6-22.66 181.08-21.09 181.57-19.53 181.96-16.63 182.35-13.72 182.52-9.84 182.69-5.96 182.74-0.05L182.74-0.05Q182.45 0.05 181.62 0.05L181.62 0.05Q179.86 0.05 178.89-0.39L178.89-0.39Q178.69-1.17 178.69-2.98L178.69-2.98Q178.69-3.91 178.76-6.47 178.84-9.03 178.84-10.45L178.84-10.45Q178.84-12.79 178.67-14.55 178.5-16.31 178.03-18.02 177.57-19.73 176.62-20.65 175.66-21.58 174.25-21.58L174.25-21.58Q172.64-21.58 171.73-21.34 170.83-21.09 170.46-20.75 170.1-20.41 169.36-19.53ZM204.91-37.3L204.27 1.27 201.59 0.73Q201.59-0.24 201.54-0.73L201.54-0.73Q198.95 0.93 196.07 0.93L196.07 0.93Q191.63 0.93 189.16-2.88 186.7-6.69 186.7-11.52L186.7-11.52Q186.7-14.01 187.06-16.21 187.43-18.41 188.33-20.73 189.24-23.05 191.16-24.41 193.09-25.78 195.83-25.78L195.83-25.78Q198.51-25.78 200.86-24.46L200.86-24.46Q201.25-29.64 201.25-34.91L201.25-34.91Q201.25-37.3 201.2-38.43L201.2-38.43Q203.54-37.99 204.91-37.3L204.91-37.3ZM201.15-3.96L201.15-3.96 201-19.68Q200.42-20.9 199.17-21.61 197.93-22.31 196.51-22.31L196.51-22.31Q194.61-22.31 193.26-21.09 191.92-19.87 191.36-17.85 190.8-15.82 190.58-14.06 190.36-12.3 190.36-10.35L190.36-10.35Q190.36-2.05 195.92-2.05L195.92-2.05Q197.78-2.05 199.32-2.56 200.86-3.08 201.15-3.96ZM210.62-21.09L210.62-21.09 209.64-23.58Q210.91-24.85 212.87-25.61 214.82-26.37 216.72-26.37L216.72-26.37Q224.98-26.37 224.98-12.11L224.98-12.11Q224.98-10.16 224.76-6.35 224.54-2.54 224.54-0.63L224.54-0.63Q224.14 0.88 223.02 0.88L223.02 0.88Q222.14 0.88 221.41 0 220.68-0.88 220.68-1.95L220.68-1.95Q220.68-2.29 220.73-2.44L220.73-2.44Q217.7 0.49 214.28 0.49L214.28 0.49Q211.69 0.49 209.77-1.39 207.84-3.27 207.84-5.96L207.84-5.96Q207.84-10.5 211.38-14.16 214.92-17.82 219.41-17.82L219.41-17.82Q219.6-17.82 219.8-17.8 219.99-17.77 220.26-17.72 220.53-17.68 220.68-17.68L220.68-17.68Q220.29-23.39 216.14-23.39L216.14-23.39Q213.7-23.39 210.62-21.09ZM220.82-5.81L220.82-5.81Q220.92-9.23 220.92-10.99L220.92-10.99Q220.92-12.45 220.82-15.09L220.82-15.09 220.43-15.09Q216.97-15.04 214.11-12.5 211.25-9.96 211.25-6.35L211.25-6.35Q211.25-4.79 212.21-3.86 213.16-2.93 214.53-2.93L214.53-2.93Q216.67-2.93 220.82-5.81Z" opacity="1" transform="matrix(1,0,0,1,0,0)" fill="#ecab55" class="wordmark-text-0" data-fill-palette-color="primary" id="text-0"></path></svg></g></svg></g></svg></g></svg></g><g><svg viewBox="0 0 151.05858048 149.56343271132755" height="149.56343271132755" width="151.05858048"><g><svg xmlns="http://www.w3.org/2000/svg" xmlns:xlink="http://www.w3.org/1999/xlink" xml:space="preserve" version="1.1" style="shape-rendering:geometricPrecision;text-rendering:geometricPrecision;image-rendering:optimizeQuality;" viewBox="3812.99658203125 3142.572021484375 44714.00390625 44271.43359375" x="0" y="0" fill-rule="evenodd" clip-rule="evenodd" height="149.56343271132755" width="151.05858048" class="icon-icon-0" data-fill-palette-color="accent" id="icon-0"><g fill="#ecab55" data-fill-palette-color="accent"><path class="" d="M27933 3188c-18 12-469 18-1010 12-1076-12-1244 24-1756 409-252 192-336 252-871 601-950 625-1654 1491-1870 2309-223 818-277 1058-259 1076 6 12-204 12-475 6-451-6-529-30-884-228-583-331-1016-451-1798-487-1040-48-1671 108-2543 637-463 277-980 800-1257 1251l-204 336 0 938c0 788 24 1017 138 1461 313 1179 794 2099 1660 3175 541 674 1635 1684 1972 1828 222 90 926 583 1070 746 84 96 824 607 878 607 12 0 198 132 403 301 210 162 529 366 709 457 181 90 421 228 536 318 114 84 252 181 312 217 427 252 932 535 1311 727 246 133 463 253 469 277 12 30 48 48 78 48 84 0 1028 475 1137 571 192 162 1220 643 1455 680 210 24 240 18 216-85-12-66-102-138-228-174-301-96-1035-445-1149-547-48-42-415-247-812-451-390-199-739-385-775-415-66-48-565-325-1052-577-427-223-1822-1064-2033-1227-90-72-397-282-685-469-283-186-595-409-692-493-415-361-727-595-992-727-601-307-1804-1516-2423-2430-950-1413-1365-2765-1239-4094 61-662 193-998 500-1269 78-72 276-246 438-391 445-397 1005-697 1600-860 439-114 625-132 1148-114 788 36 1173 138 1900 511 319 163 632 295 692 295 60 0 174 42 252 96 187 120 409 48 662-216 138-145 168-229 180-554 18-439 144-920 325-1208 66-114 108-217 90-241-120-120 493-799 1203-1340 252-193 577-445 715-548 138-108 457-264 704-342 390-127 547-145 1172-133 547 12 812 48 1100 145 211 72 487 156 620 192 126 36 234 90 234 120 0 78-439 78-517 0-102-102-1521 169-1882 355-168 96-162 205 12 150 710-228 1762-324 2297-216 625 126 920 277 1245 637 312 349 342 463 102 331-307-162-800-235-1828-277-1118-36-1533-6-1533 121 0 54 312 78 1208 84 1287 18 1798 90 2111 319 90 66 204 120 252 120 133 0 259 282 307 691 24 199 66 457 96 571 60 253 199 1353 193 1564-6 78-36 240-67 361-36 114-108 469-162 781-132 764-607 2694-727 2983-55 132-121 312-151 414-24 97-126 475-228 842-102 361-241 890-313 1173-174 673-794 2669-1118 3577-295 848-626 2466-529 2616 18 30 156 60 300 60 307 0 361-60 421-511 24-168 78-385 120-487 49-96 103-301 127-451 18-144 72-355 120-463 48-108 132-427 180-716 54-288 133-595 175-679 126-229 330-830 330-968 0-241 487-1575 602-1648 30-18 60-132 60-252 0-120 24-301 54-403 174-571 337-1046 403-1179 144-264 246-649 198-733-48-90 181-902 367-1281 66-132 120-294 120-361 0-66 66-372 151-685 204-746 438-2056 475-2604 30-396-6-715-199-1701-30-169-144-559-258-872-175-487-241-607-512-866-174-162-318-331-318-367 0-114-1101-631-1335-631-120 0-247-42-289-90-60-72-180-90-493-78-228 12-427 30-439 42l0 0z" fill="#ecab55" data-fill-palette-color="accent"></path><path class="" d="M26929 6411c-96 54-168 102-168 108 0 6 505 12 1124 12 1245 0 1672 66 1966 313 109 90 193 126 229 90 114-114-72-301-415-439-307-120-481-138-1461-157-920-18-1143-6-1275 73l0 0z" fill="#ecab55" data-fill-palette-color="accent"></path><path class="" d="M39508 7096c0 90-313 186-589 186-397 6-944 145-1365 355-199 96-571 277-824 391-613 277-1160 637-1792 1173-451 390-751 667-1653 1551-295 288-788 902-968 1202-578 980-1317 2363-1443 2700-91 229-271 710-415 1076-145 361-313 812-379 993-66 180-187 481-271 661-132 307-379 1010-601 1714-96 306-204 871-265 1352-18 151-78 403-138 572-54 162-108 384-108 481 0 102-6 210-12 240-12 36-12 126-6 211l6 156 577-24c469-24 698 0 1275 132 385 90 854 217 1034 277 180 66 655 192 1052 294 397 97 1143 289 1654 421 511 139 1148 289 1413 343 264 48 805 168 1202 265 926 222 2826 601 3367 673 578 72 2087 12 2496-102 180-48 655-175 1052-277 397-102 884-264 1082-361 343-168 487-270 1221-865 168-133 463-343 667-463 223-133 397-289 439-391 42-90 157-289 259-439 306-463 661-1263 860-1966l192-674-54-830c-84-1196-259-1593-1191-2639-390-433-829-758-1190-872-132-42-403-162-601-265-632-342-938-414-1389-324-337 66-427 66-716-30-373-115-457-199-307-313 61-36 115-156 127-252 12-103 90-319 174-488 210-408 397-1112 397-1509 0-763-42-1551-108-1816-235-938-872-1918-1516-2333l-306-198-1173-12c-643-12-1166 0-1166 24l0 0z m1010 577c679 127 1088 337 1479 746 355 367 746 1058 902 1581 108 373 120 1125 36 1852-72 650-108 776-282 1131l-163 318-661-48c-776-54-4113-48-4341 6-205 54-151 193 72 169 535-49 3728-55 4112-6 740 90 698 66 698 438-6 181 12 343 36 367 24 24 114 18 204-12 211-72 987 36 987 132 0 43 204 115 499 169 324 66 739 210 1184 427 565 264 758 391 1040 679 343 355 391 433 764 1269 108 234 234 463 277 499 42 30 108 198 144 373 42 174 102 342 132 379 30 42 24 342-12 751-54 541-108 776-258 1106-307 686-494 1005-872 1510-439 583-734 847-1395 1238-1515 902-1918 1071-2616 1071-264 0-589 42-727 84-163 60-313 72-451 42-115-24-355-24-535 0-469 66-2123 66-2424 0-138-36-463-102-715-163-259-54-469-126-469-150 0-24-102-66-223-84-126-18-360-72-529-120-162-48-433-96-601-115-162-12-421-66-571-114-150-48-433-120-632-162-198-42-523-144-721-229-379-156-1070-354-1533-439-289-48-752-174-1203-324-150-48-457-114-691-145-229-36-584-90-782-126-198-42-421-84-493-96-102-18-138-66-138-174 0-85-30-199-66-265-55-84-37-240 84-734 84-342 174-733 198-865 48-295 199-788 307-992 42-85 78-187 78-235 0-48 162-493 355-992 198-499 487-1233 637-1623 355-908 992-2183 1497-2989 211-343 463-745 553-896 379-613 1065-1341 2099-2236 938-806 1431-1107 2826-1720 529-235 1106-385 1329-337 96 18 324 6 505-24 361-60 348-60 1070 78l0 0z" fill="#ecab55" data-fill-palette-color="accent"></path><path class="" d="M38017 8659c-205 18-373 61-373 91 0 36 655 60 1545 72 854 6 1672 42 1822 78 331 78 782 84 782 12 0-48-505-150-1263-247-433-54-1930-60-2513-6l0 0z" fill="#ecab55" data-fill-palette-color="accent"></path><path class="" d="M36928 9682c-180 114 151 144 2003 192 1858 48 2272 84 2862 234 553 145 559 145 529 55-18-49-163-133-325-199-541-204-1389-276-3193-270-932 0-1719-12-1749-30-24-13-85-6-127 18l0 0z" fill="#ecab55" data-fill-palette-color="accent"></path><path class="" d="M36983 11004c0 121 30 121 1437 85 1292-31 2597 30 3060 144 144 36 180 168 60 216-60 18-60 48-12 97 84 90 373-13 421-145 66-162-150-318-535-391-535-102-3409-144-3836-60-253 54-373 54-469 6-108-60-126-54-126 48l0 0z" fill="#ecab55" data-fill-palette-color="accent"></path><path class="" d="M38426 12255c-926 18-1143 42-1143 138 0 36 613 60 1660 60 1828 0 2994 85 3168 229 79 72 121 78 175 24 120-120-60-222-493-301-481-90-1840-198-2219-180-150 6-667 24-1148 30l0 0z" fill="#ecab55" data-fill-palette-color="accent"></path><path class="" d="M38107 14420c-577 18-764 42-746 96 18 54 590 72 2393 84 1726 6 2592 36 3181 102 1245 151 1347 163 1437 241 66 54 78 48 54-24-12-48-78-97-144-109-60-12-168-42-234-66-451-192-3031-385-4630-354-295 6-890 24-1311 30l0 0z" fill="#ecab55" data-fill-palette-color="accent"></path><path class="" d="M37343 15273c-48 31-72 73-60 91 18 12 1167 36 2556 54 2886 36 4942 138 5080 252 54 42 289 72 602 78 1172 6-295-240-2436-408-1130-91-5627-145-5742-67z" fill="#ecab55" data-fill-palette-color="accent"></path><path class="" d="M38083 16019c-150 66-187 247-66 319 42 30 956 54 2032 66 4473 36 5892 108 5640 270-120 73 361 61 499-18 241-126 114-168-848-270-403-42-2958-132-5159-181-1563-36-1936-60-1912-120 42-114-30-138-186-66l0 0z" fill="#ecab55" data-fill-palette-color="accent"></path><path class="" d="M39736 17192c-60 12-108 42-108 72 0 72 259 90 4660 276 1166 48 1996 187 1972 319-12 36 66 66 193 66 168 0 210-24 210-120 0-72-60-145-138-175-175-66-1503-228-1966-240-181-6-938-48-1684-96-1443-90-2970-145-3139-102z" fill="#ecab55" data-fill-palette-color="accent"></path><path class="" d="M39887 18442c-229 96 12 144 751 144 1467 6 3939 181 4654 325 343 66 355 78 265 175-97 96-84 96 186 60 301-36 433-133 295-211-403-228-2604-463-4576-499-824-12-1539-12-1575 6l0 0z" fill="#ecab55" data-fill-palette-color="accent"></path><path class="" d="M39117 19729c-24 36-30 78-18 90 72 78 974 211 1762 265 1894 138 3253 246 3367 270 72 12 433 42 812 60 378 24 787 54 902 72 150 19 186 13 114-30-120-78-692-168-1588-252-396-36-1142-102-1653-150-511-49-1269-115-1684-145-667-54-1202-114-1779-216-115-24-211-6-235 36l0 0z" fill="#ecab55" data-fill-palette-color="accent"></path><path class="" d="M38822 20986c-24 36 30 108 115 162 114 72 372 114 1010 150 469 24 1046 78 1275 114 234 31 703 91 1052 121 348 30 781 84 962 120 180 36 427 72 541 90 114 18 397 54 625 90 229 30 433 48 445 30 60-60-72-150-234-150-96 0-349-36-553-84-560-126-1065-204-1997-307-463-54-920-108-1022-126-96-12-583-66-1082-108-493-48-944-102-998-126-60-18-121-12-139 24l0 0z" fill="#ecab55" data-fill-palette-color="accent"></path><path class="" d="M38107 22176c-168 42-84 162 144 205 114 24 343 72 505 108 169 36 680 120 1143 186 463 60 884 126 932 144 48 18 541 103 1094 181 553 84 1058 186 1124 228 67 42 139 54 163 36 60-66-36-168-163-168-66 0-168-24-228-54-156-84-2273-469-3313-607-283-36-619-103-752-145-336-114-523-144-649-114l0 0z" fill="#ecab55" data-fill-palette-color="accent"></path><path class="" d="M26099 7733c-42 49-54 97-24 103 30 6 626 12 1317 18 1521 12 2165 114 2994 475 217 96 103-145-120-253-601-300-1545-433-3060-433-842 0-1046 18-1107 90l0 0z" fill="#ecab55" data-fill-palette-color="accent"></path><path class="" d="M26550 9020c-66 114 127 138 1191 156 1010 19 1365 61 2026 247 138 42 145 36 66-60-132-156-415-253-968-331-607-78-2267-90-2315-12l0 0z" fill="#ecab55" data-fill-palette-color="accent"></path><path class="" d="M26731 10439c-96 42-169 84-151 90 18 6 572 24 1233 36 661 18 1281 55 1377 91 96 30 277 54 403 54 126 0 246 24 264 60 18 30 67 60 97 60 102 0-6-126-157-180-595-229-2712-373-3066-211l0 0z" fill="#ecab55" data-fill-palette-color="accent"></path><path class="" d="M12450 16903c-114 24-420 66-673 90-415 36-487 60-631 217-97 96-223 174-295 174-72 0-265 108-427 234-162 133-499 331-751 445-247 115-469 235-493 271-19 36-157 120-301 186-559 271-1094 998-1419 1924-120 343-132 457-96 962 66 908 96 1011 415 1498 733 1130 1497 1737 2783 2236 247 91 500 235 566 313 102 126 114 126 120 24 0-102 30-108 301-72 234 30 300 24 300-42 0-84-252-181-679-259-337-60-1143-409-1534-667-366-247-1316-1155-1473-1413-427-698-481-890-469-1726 12-601 79-866 373-1497 193-391 343-583 601-746 85-54 325-246 536-432 210-181 451-349 535-367 84-24 240-78 336-120 578-259 806-337 1215-421 709-151 1287-169 2333-97 643 49 1130 121 1473 217 283 78 686 162 902 180 216 24 487 66 601 103 115 30 626 162 1137 294 505 132 968 265 1022 301 78 48 66 54-54 24-325-84-2021-108-2159-36-72 42-120 90-108 108 66 60 2447 66 2447 6 0-168 1401 210 1636 445 60 60 198 108 306 108 102 6 343 84 523 181l331 174-240 6c-133 0-584-48-993-102-907-127-4148-133-4491-6-241 84-229 204 18 186 818-72 3060-78 3776-24 469 42 1160 84 1551 96l698 18 745 391c403 217 956 505 1221 643 505 271 1521 884 2068 1251 229 156 295 229 223 241-66 12-90 60-66 126 18 66-60 186-235 361l-270 264-259-96c-517-192-2062-397-3415-445-644-24-1245 6-2285 102-776 72-1467 133-1533 133-157-6-584 114-656 180-36 30-36 72 0 108 36 36 325 18 836-60 1720-252 3530-295 5412-114 1010 90 1509 186 1485 282-6 42 42 73 108 73 174 0 150 78-102 372-127 145-271 331-331 409-84 126-114 139-216 78-85-48-1047-72-3566-78-2375 0-3457-24-3487-66-61-102-295 0-295 126 0 60 48 127 108 145 175 54 6272 24 6674-30 211-30 409-43 445-18 36 24-78 180-264 378-355 367-716 782-950 1101-199 264-1750 1810-2165 2158-180 151-493 445-691 656-566 601-830 847-1004 938-85 42-211 144-271 222-277 355-1515 1455-1972 1756-277 180-752 439-1052 571-301 132-650 295-770 361-631 331-1684 571-2507 565-325 0-427-30-884-289-289-162-674-420-854-571-313-258-878-926-878-1034 0-24-78-216-174-427-151-337-235-595-331-1058-12-78 0-481 30-902 48-710 66-794 289-1257 402-842 715-1329 956-1491 192-132 204-150 84-150-397 0-770 445-1245 1485-318 691-324 727-385 1491-66 872-36 1137 193 1720 204 541 282 679 631 1154 355 475 734 806 1239 1070 204 109 433 241 517 295 84 60 264 138 403 180 511 157 2291-162 3024-541 150-78 529-252 842-385 667-294 1617-1004 2375-1779 265-277 619-608 782-734 270-216 2489-2327 3337-3175 186-180 475-505 655-721 174-217 547-625 824-914 475-487 523-517 709-487 187 30 241-12 848-601 632-614 650-638 613-842-24-150-6-235 55-289 132-108 72-607-103-872-306-445-1443-1154-2549-1587-265-102-601-265-752-355-234-144-529-282-1503-709-114-54-337-157-493-235-427-210-1299-547-1701-661-199-54-512-169-692-247-770-342-2886-944-3908-1106-716-114-2069-144-2465-54l-1 0z" fill="#ecab55" data-fill-palette-color="accent"></path><path class="" d="M16792 20667c-72 48-133 132-133 180 0 72 313 84 2213 78 1215 0 2531 24 2928 61 1383 126 1894 180 1948 216 36 18 73 6 91-24 48-72-379-174-1017-247-294-36-811-96-1142-138-397-48-1305-66-2688-60-1250 12-2092-6-2092-36 0-30 60-72 138-84 114-24 120-24 12-36-66 0-186 36-258 90l0 0z" fill="#ecab55" data-fill-palette-color="accent"></path><path class="" d="M17754 21893c-78 31-127 85-109 115 19 30 854 54 1852 54 1780 6 2526 60 4498 319 806 108 1178 126 1112 66-72-72-739-211-1473-307-282-36-806-114-1172-162-794-115-4486-181-4708-85z" fill="#ecab55" data-fill-palette-color="accent"></path><path class="" d="M28222 22441c-174 78-259 156-259 234 0 90-42 120-168 120-114 0-234 67-355 193-270 282-595 787-679 1052-42 126-108 289-157 361-48 72-138 276-204 445-66 168-240 475-385 679-312 433-805 1413-998 1960-72 217-168 469-216 572-151 336-451 1082-566 1401-66 174-180 445-264 601-84 156-217 475-295 703-84 235-270 734-421 1113-258 667-348 974-463 1575-30 162-66 313-84 337-48 78-216 926-216 1094 0 84-54 367-120 631-91 361-121 686-121 1293 0 944 66 1281 427 2039 199 414 337 601 686 944 535 523 926 727 1629 841 601 96 1503 78 1864-36 1058-330 2646-1016 2790-1202 18-18 180-151 367-283 421-313 613-505 1106-1118 433-535 1233-1828 1233-1997 0-54 66-210 144-348 84-139 168-379 186-535 42-283 42-283 205-205 433 223 1972 692 2874 878 204 42 475 54 601 36 126-24 626-42 1113-36 998 0 1244-66 2104-553 517-289 812-523 1527-1221 271-264 602-553 734-643 349-229 649-878 709-1503 72-794-114-1467-547-2003-108-132-331-445-499-697-210-313-409-529-637-685-187-127-337-253-337-283 0-102-493-583-830-812-186-126-703-481-1142-787-445-313-932-620-1082-692-157-66-391-186-518-271-414-258-1461-787-2128-1070-355-150-902-403-1215-559-312-156-721-337-902-397-180-54-529-180-763-276-241-97-638-253-872-349-241-96-571-187-728-211-156-18-414-84-571-144-769-307-1196-361-1557-186l0 0z m337 685c270 96 1082 289 1479 355 132 24 415 108 631 180 217 78 782 283 1263 457 481 169 992 361 1142 421 151 60 367 126 481 150 114 18 313 115 433 217 126 96 409 246 631 331 500 186 1029 451 1702 853 283 169 848 499 1257 734 409 240 932 589 1160 782 229 192 499 390 608 445 378 180 1683 1665 1761 2008 24 90 90 216 151 288 66 67 168 271 228 451 102 283 108 403 60 950-66 722-162 1095-379 1437-84 133-234 421-336 638-109 222-241 421-301 457-60 30-253 180-427 330-349 301-1515 902-1858 956-222 37-2225-54-2585-114-115-18-385-84-602-144-216-66-541-144-721-186-565-133-1016-289-1431-512-487-258-577-324-631-469-49-126-217-114-283 18-30 49-78 277-120 512-211 1256-716 2423-1347 3126-120 132-313 355-421 493-186 235-655 680-1263 1197-336 294-715 457-1930 842-439 138-1323 138-2026 0-355-67-547-151-836-343-204-144-385-301-397-349-18-54-114-150-216-216-205-133-493-584-746-1173-156-367-168-439-168-1293 0-1100 78-1617 565-3637 229-938 890-2850 1088-3127 60-84 133-234 157-337 24-96 192-529 366-956 181-433 355-872 391-986 175-589 596-1455 1041-2140 174-265 372-590 438-728l127-246 739-42c968-55 2670-55 3854 0 650 30 944 24 944-25 0-72-246-102-1461-198-956-72-3283-36-3451 54-150 78-499 18-499-84 0-337 746-1407 980-1407 42 0 114 36 156 72 61 66 85 60 133-30 72-126 144-126 469-12l0 0z" fill="#ecab55" data-fill-palette-color="accent"></path><path class="" d="M29376 25447c-1737 60-2375 174-2375 415 0 138 0 138 223 54 595-228 3084-355 4708-240 1202 84 1966 168 2164 240 253 96 662 132 662 66 0-30-48-60-108-60-67 0-271-54-469-126-884-307-2520-427-4805-349l0 0z" fill="#ecab55" data-fill-palette-color="accent"></path><path class="" d="M32954 26662c-18 18-571 66-1233 96-1118 60-2020 132-2886 222-198 24-439 48-541 54-96 12-216 18-252 24-121 12-97 247 30 247 54 0 511-54 1004-114 1166-151 3776-313 5225-319 1010-6 1142 6 1214 96 103 145 524 114 554-36 12-72-36-132-151-174-174-66-2910-157-2964-96l0 0z" fill="#ecab55" data-fill-palette-color="accent"></path><path class="" d="M32022 28153c-728 24-1593 84-1918 138-331 54-692 96-800 96-168 0-204 24-186 102 24 133 252 127 1371-24 1226-168 5712-144 6752 37 385 66 481 108 433 192-24 30 72 54 204 54 199 0 247-24 247-108 0-66-72-145-162-187-295-132-1287-240-2568-276-697-18-1443-42-1659-48-217-6-987 6-1714 24l0 0z" fill="#ecab55" data-fill-palette-color="accent"></path><path class="" d="M34006 29656c-1238 36-3271 180-3668 265-84 18-216 42-300 60-84 18-151 72-151 120 0 108-90 114 1125-24 2399-277 6259-331 7113-96 313 84 427 90 565 36 132-54 156-84 102-151-168-204-2014-282-4786-210l0 0z" fill="#ecab55" data-fill-palette-color="accent"></path><path class="" d="M35672 31039c-710 30-1942 108-2736 180-800 72-1575 133-1726 139-264 6-300 24-300 162 0 66 529 48 1112-30 1647-223 6668-331 7444-163 349 79 349 79 240 199-108 126-108 126 133 84 294-54 312-72 234-204-108-163-836-307-1888-373-547-30-1046-54-1112-48-66 0-698 30-1401 54l0 0z" fill="#ecab55" data-fill-palette-color="accent"></path><path class="" d="M38059 32801c-60 66-4690 204-4949 150-174-36-180 108-18 216 133 85 271 91 1161 36 559-30 1900-90 2982-132 1882-72 1978-72 2177 36 174 96 234 102 360 42 181-78 157-222-42-276-186-54-1629-114-1671-72l0 0z" fill="#ecab55" data-fill-palette-color="accent"></path><path class="" d="M36604 34262c-6 0-632 18-1395 36-758 18-1389 36-1389 36-6 6-24 42-42 84-24 66 409 78 2357 72 1311-6 2393-18 2411-24 12 0-12-42-48-84-54-48-373-84-980-102-499-18-908-24-914-18l0 0z" fill="#ecab55" data-fill-palette-color="accent"></path><path class="" d="M25823 24190c-66 79-193 241-283 361-102 138-198 211-252 193-205-79-920 553-1233 1088-78 132-186 294-246 361-55 66-157 270-217 451-60 180-192 439-289 571-168 228-925 1172-992 1232-78 73-595 788-853 1173-151 228-421 553-590 721-168 163-366 397-433 511-72 115-282 373-463 578-643 703-998 1124-1130 1341-198 318-980 1196-1738 1954-360 366-745 763-847 878-97 114-271 294-385 390-115 103-319 307-457 451-457 499-1906 1894-2315 2237-229 193-553 439-728 553-180 109-523 373-769 584-535 469-1702 1232-2610 1713-162 90-397 235-511 325-114 90-421 288-673 439-253 150-686 439-962 649-277 205-728 493-1011 644-282 144-661 354-847 469-187 114-397 204-463 204-73 0-145 30-169 66-18 36-156 114-306 180-289 127-319 253-67 283 139 18 163 54 199 301 96 691 800 1683 1413 1996 505 259 764 313 1118 240 289-60 343-60 403 25 66 90 114 84 523-31 247-72 523-126 608-126 90 0 342-90 571-204 222-114 439-205 481-205 36 0 162-84 270-186 115-108 301-259 415-343 1209-884 2556-1966 3067-2459 439-421 811-758 1142-1028 355-283 2886-2832 2886-2898 0-30 66-115 145-193 78-78 390-505 691-950 830-1214 956-1401 1070-1563 391-541 1365-2219 1804-3097 102-198 295-565 433-811 138-247 331-620 433-824 96-199 240-409 319-463 84-48 168-180 186-289 48-204 728-1383 824-1425 30-6 114-156 192-330 78-169 229-427 343-578 114-150 277-378 361-511 210-318 1196-2176 1196-2243 0-30 48-120 115-198 210-271 366-595 324-691-24-61 48-181 205-343 126-138 270-325 318-421 72-144 72-174-36-247-108-84-108-90 60-270 145-150 163-199 97-277-103-126-199-114-337 42l0 0z m-3554 4781c-48 138-835 1286-1292 1894-367 487-409 565-259 505 120-42 48 96-301 595-324 463-348 511-282 511 60 0 775-908 830-1052 18-36 90-109 168-145 78-42 246-240 379-445 138-204 300-426 372-487 73-66 127-144 127-180 6-72 204-313 379-451 90-72 102-72 60 30-169 403-511 986-584 986-132 0-883 872-1479 1714-180 252-541 751-805 1100-505 692-566 794-463 794 36 0 66-24 66-48 0-30 168-235 373-457 210-229 414-475 469-547 336-511 1322-1732 1364-1690 67 60-637 1239-739 1239-36 0-132 102-217 222-565 848-974 1431-1010 1449-24 6-282 169-577 355-295 186-788 475-1100 643-547 295-728 457-511 457 120 0 697-270 956-445 270-186 697-396 811-396 54 0 175-67 265-151 216-198 198-120-60 265-187 270-235 312-361 282-108-30-325 49-794 289-902 451-1310 685-1395 788-156 186 115 84 1119-421 553-277 1022-499 1034-487 54 60-776 1419-1046 1713-169 187-361 445-433 578-187 366-962 1419-1209 1635-162 150-324 217-667 289-686 144-1563 433-1834 601-361 222-120 192 709-84 836-283 1245-361 1245-241 0 48-96 187-210 313-181 198-229 216-331 162-138-72-734 36-1221 223-529 198-1124 499-1124 559 0 102 150 72 553-108 211-96 463-205 559-241 271-102 1179-318 1233-300 60 24-319 493-565 709-96 84-271 247-391 361-307 301-1136 1022-1419 1238-445 343-1052 746-1112 746-31 0-349 96-704 217-679 228-1461 589-1461 679 0 90 144 114 240 36 49-36 337-168 632-289 926-372 1094-360 607 43-186 150-325 216-469 216-319 6-715 114-1100 307-421 210-608 342-559 384 30 37 174-12 1094-360 228-84 427-139 445-121 54 49-277 367-487 469-108 55-355 139-553 193-836 222-1010 288-1209 463-228 204-661 312-836 210-96-48-270-18-1004 181-60 12-108 54-108 90 0 42 108 54 319 30l312-36-270 162-271 163 193 18c102 12 276-24 384-85 109-54 307-108 439-120 139-12 301-48 367-78 439-198 583-253 637-235 127 43-847 542-1232 632-373 90-415 90-740-18-445-145-926-439-1094-674-162-234-162-312 24-312 78 0 234-36 343-84 108-49 300-109 421-127 126-18 240-66 264-102 30-48-30-54-198-30-157 30-277 12-349-42-72-48-198-72-337-54-126 18-234 6-258-36-24-36-12-66 24-66 42 0 60-37 48-73-18-48-120-66-289-54-168 12-276-12-306-66-85-126-61-451 36-529 48-42 90-108 90-144 0-36 132-145 301-235 162-90 312-192 330-222 18-30 271-169 559-307 289-132 632-337 764-439 295-240 1148-818 1209-818 24 0 150-90 288-198 337-271 830-589 1305-836 216-120 529-306 697-415 169-114 451-288 620-385 174-102 535-366 805-595 265-222 758-601 1089-842 818-583 1617-1340 4209-4010 1100-1130 1798-1906 2411-2670 156-198 318-391 361-421 36-36 174-198 306-372 295-373 722-884 1137-1335 168-187 421-499 565-698 373-517 685-932 703-932 6 0 0 48-24 103l0 0z" fill="#ecab55" data-fill-palette-color="accent"></path><path class="" d="M17537 36595c-192 114-367 210-391 210-18 0-210 126-426 277-217 150-596 409-842 571-403 264-433 295-277 295 193 0 547-193 1058-566 187-138 596-378 920-547 319-162 578-324 566-361-43-126-265-84-608 121l0 0z" fill="#ecab55" data-fill-palette-color="accent"></path><path class="" d="M12661 42211c-96 24-235 78-301 114-246 132-1299 553-1563 619-253 66-445 199-379 271 48 42 740-181 1612-517 414-157 811-307 889-331 73-18 133-78 133-126 0-91-103-97-391-30l0 0z" fill="#ecab55" data-fill-palette-color="accent"></path><path class="" d="M18084 25176c-90 91-36 193 127 253 102 36 487 36 1034 6 1768-108 3006-78 3006 72 0 78 343 66 391-6 72-114-78-216-421-300-258-61-673-67-1912-31-1918 61-1906 55-2056 6-66-24-145-24-169 0l0 0z" fill="#ecab55" data-fill-palette-color="accent"></path><path class="" d="M19064 26132c-877 103-1629 283-1707 409-36 54-48 109-36 127 18 12 276-24 571-91 890-192 1166-228 1954-264 896-36 1551 54 1690 228 120 151 475 97 475-72 0-300-1660-493-2947-337z" fill="#ecab55" data-fill-palette-color="accent"></path><path class="" d="M16437 28135c-18 42-12 96 6 114 66 66 3884 54 3866-12-12-30-138-96-288-138-373-109-3542-79-3584 36z" fill="#ecab55" data-fill-palette-color="accent"></path><path class="" d="M15481 29602c-108 168 132 198 1677 210 1450 6 1564 0 1401-84-132-72-445-96-1322-114-632-18-1281-36-1437-48-157-12-301 6-319 36z" fill="#ecab55" data-fill-palette-color="accent"></path></g></svg></g></svg></g></svg></g></svg></g><g><path d="M0 123.6c0-68.262 55.338-123.6 123.6-123.6 50.947 0 94.694 30.824 113.61 74.84h-1.702c-18.819-43.131-61.843-73.279-111.908-73.279-67.4 0-122.039 54.639-122.039 122.039 0 67.4 54.639 122.039 122.039 122.039 50.065 0 93.089-30.147 111.908-73.279l1.702 0c-18.916 44.016-62.663 74.84-113.61 74.84-68.262 0-123.6-55.338-123.6-123.6z" fill="#ecab55" stroke="transparent" data-fill-palette-color="tertiary"></path></g></svg></g><defs></defs></svg><rect width="395.52" height="247.2" fill="none" stroke="none" visibility="hidden"></rect></g></svg></g></svg>